<?xml version="1.0" encoding="utf-8"?>
<!-- Generator: Adobe Illustrator 23.0.3, SVG Export Plug-In . SVG Version: 6.00 Build 0)  -->
<svg version="1.1" id="Layer_1" xmlns="http://www.w3.org/2000/svg" xmlns:xlink="http://www.w3.org/1999/xlink" x="0px" y="0px"
	 viewBox="0 0 1000 1000" style="enable-background:new 0 0 1000 1000;" xml:space="preserve">
<g id="Layer_12">
	<rect style="fill:#00BF7D;" width="1000" height="1000"/>
</g>
<g id="Layer_11">
	<polygon style="fill:#02B678;" points="0,746.2 241.9,1000 1000,1000 1000,0 0,0 	"/>
</g>
<g id="Layer_10">
	<polygon style="fill:#04AE73;" points="0,551.8 468.5,1000 1000,1000 1000,0 0,0 	"/>
</g>
<g id="Layer_9">
	<polygon style="fill:#06A56E;" points="0,395.6 715.8,1000 1000,1000 1000,0 0,0 	"/>
</g>
<g id="Layer_8">
	<polygon style="fill:#089D69;" points="0,260.3 991.3,1000 1000,1000 1000,0 0,0 	"/>
</g>
<g id="Layer_7">
	<polygon style="fill:#099465;" points="0,146.5 1000,801 1000,0 0,0 	"/>
</g>
<g id="Layer_6">
	<polygon style="fill:#0B8C60;" points="0,46.9 1000,613.7 1000,0 0,0 	"/>
</g>
<g>
	<polygon style="fill:#0D835B;" points="1000,440 1000,0 94.3,0 	"/>
</g>
<g id="Layer_3">
	<path style="fill:#0F7B56;" d="M1000,259.3V0H278.2C454.7,64.1,782,182.6,1000,259.3z"/>
</g>
<g id="Layer_4">
	<polygon style="fill:#117251;" points="1000,91.7 1000,0 576.5,0 	"/>
</g>
</svg>
